<svg xmlns="http://www.w3.org/2000/svg" viewBox="0 0 841.89 357.2"><defs><style>.cls-1{fill:#fff;}</style></defs><path class="cls-1" d="M499.15,167.45c13.24,3.3,24.84,8.81,34.66,18,1-.65,1.82-1.23,2.67-1.83a404.35,404.35,0,0,1,70.82-40.15c2.26-1,4.38-1.3,6.57,0,2.5,1.46,3.18,3.89,1.59,6.3-1.75,2.65-3.59,5.26-5.55,7.75-2.22,2.84-5.15,2.77-9-.14a401,401,0,0,0-60.77,34.78c.55.85,1,1.51,1.39,2.14,14.9,21,14.34,45-.37,66.48a5.15,5.15,0,0,1-2.4,1.91,3.78,3.78,0,0,1-4.28-1.32c-1.13-1.35-.92-2.72-.1-4.17,1.82-3.22,3.8-6.38,5.29-9.76,7.42-16.78,5.61-32.65-5-47.56-.56-.78-1.19-1.5-1.89-2.39-.91.64-1.7,1.18-2.47,1.74a407.37,407.37,0,0,0-79.12,77.72A88.6,88.6,0,0,0,442.31,291a35.66,35.66,0,0,0-3.19,10.82c-.92,6.24,2.06,10.26,8.19,12,5,1.43,10,.76,14.91-.44A76.64,76.64,0,0,0,487,302.22c5.35-3.59,10.43-7.56,15.61-11.39,2.35-1.73,4.19-1.84,6-.27s1.86,3.64.12,5.05c-14.27,11.6-29.12,22.25-47.77,25.55a44.88,44.88,0,0,1-13.39.33c-11.94-1.54-18.29-10.86-15.87-22.62,1.94-9.38,6.51-17.57,12.27-25,7.8-10,15.78-19.95,24.18-29.47a392.59,392.59,0,0,1,55.77-51.49c.77-.59,1.52-1.2,2.4-1.9a9.49,9.49,0,0,0-1-1.22c-9.4-7.83-20.4-12.12-32.28-14.38a4,4,0,0,0-3,1.07,273.6,273.6,0,0,1-33.57,26.23c-6.15,4.18-12.5,8.08-20,9.32a25,25,0,0,1-8.4.13c-7.55-1.37-11.8-8.72-9.62-16.93a26.13,26.13,0,0,1,4.43-8.89c6.86-9,16.44-14,27-17.26a95.27,95.27,0,0,1,35.61-3.72,4,4,0,0,0,3.57-1.11c23.87-24.18,41.93-52,52.77-84.31a98.33,98.33,0,0,0,5.46-36.19A56.14,56.14,0,0,0,545,30c-2.77-9-9.2-12.28-18.34-10.09a39.43,39.43,0,0,0-13.55,6.42A222.15,222.15,0,0,0,459.3,79.9C439,108.68,425.44,140.48,417,174.56a404.19,404.19,0,0,0-10.16,64c-2.25,27.06-1.62,54.16-1.24,81.26,0,2.83.14,5.65.15,8.48,0,2.44-.8,3.53-2.54,3.61s-3-1-3.19-3.14c-.71-6.85-1.46-13.7-1.95-20.56a463.36,463.36,0,0,1-.55-58c2.28-42.65,9.28-84.34,25.83-124,14-33.51,33.46-63.28,60.26-88A175.37,175.37,0,0,1,509.77,18c6.19-3.86,12.73-6.88,20.14-7.51,8.39-.72,15,2.37,19.81,9.28,4,5.77,5.47,12.38,6,19.23,1.44,17.05-2,33.36-7.75,49.29a224.62,224.62,0,0,1-46.6,76.63C500.77,165.61,500.14,166.33,499.15,167.45Zm-21.11,7-.19-.55a11.56,11.56,0,0,0-2-.1c-6,.71-12.14,1-18,2.29a49.17,49.17,0,0,0-26.49,15,22.06,22.06,0,0,0-3.88,5.91c-1.45,3.38.48,6,4.11,6.06a9.84,9.84,0,0,0,3.38-.46,57.52,57.52,0,0,0,7.29-3.05,187.34,187.34,0,0,0,30.6-20.71C474.56,177.38,476.29,175.9,478,174.43Z"/><path class="cls-1" d="M142.15,130.33c-1.23-6.22-2.4-12-3.53-17.77-5-25.64-9.42-51.38-11.75-77.42-.86-9.66-1.27-19.37-1.7-29.07A5.43,5.43,0,0,1,133.09.75a7.25,7.25,0,0,1,3.23,3.84,62.42,62.42,0,0,1,2,8.76,3.33,3.33,0,0,1-.06,2.08c-1.8,3.09-1,6.38-.76,9.57,2.53,36.88,9.33,73.12,16.32,109.34a5.27,5.27,0,0,0,2.82,3.76q13.53,8.29,26.91,16.85c2.58,1.64,3.13,3.1,2.23,4.66s-2.46,1.72-5.31.06c-7.09-4.12-14.17-8.27-21.26-12.39-.82-.48-1.69-.89-2.91-1.52.13,1.12.18,1.87.32,2.6,5.25,26.75,10.34,53.53,13.87,80.57,3.43,26.22,5.2,52.54,3.72,79-.46,8.16-1.84,16.28-3,24.39a31.08,31.08,0,0,1-2.43,7.53c-5.18,12.16-15.9,18.29-29.06,17-10.66-1.06-20.35-5-29.78-9.67C96.8,340.63,85.2,332,74.22,322.5c-21.91-18.93-41.25-40.13-56.31-65-8.58-14.17-14.83-29.31-17-45.85C-2.3,186.89,2.77,164,18.05,144c12.84-16.85,30.47-25.57,51.17-28.37,22-3,42.8,1.88,62.95,10.37C135.39,127.3,138.56,128.75,142.15,130.33Zm24.64,166.59a553.48,553.48,0,0,0-4.2-56.26c-4.22-33.47-11.33-66.42-18.14-99.42a3.78,3.78,0,0,0-2.43-3.09c-3.73-1.59-7.36-3.42-11.11-5-19.13-7.88-38.85-12.34-59.67-9.77-22.64,2.81-40.56,13.36-52.39,33.15C7.54,175.5,4.54,196,8.78,217.54,12,234,19,248.86,28.32,262.68c18,26.75,40.5,49.11,66.43,68.09a131.89,131.89,0,0,0,26.77,14.93,58.75,58.75,0,0,0,17.26,4.84c11.17,1.06,20.78-3.1,24.51-15.75a35.74,35.74,0,0,0,1.55-7.23C165.6,317.35,166.16,307.14,166.79,296.92Z"/><path class="cls-1" d="M641.41,157.57c12.18-4.36,21.32-12.35,29-22.23l-.24-.58c-2.52.55-5,1.21-7.56,1.64a38,38,0,0,1-6.53.66,3.56,3.56,0,0,1-3.68-2.52,3.5,3.5,0,0,1,1.7-4.11,20.67,20.67,0,0,1,5.67-2.71c5.37-1.4,10.81-2.57,16.26-3.64a4.5,4.5,0,0,0,3.42-2.47A214.9,214.9,0,0,0,692.81,92c.22-.58.42-1.16.66-1.73.87-2,2.13-2.77,3.86-2.28s2.3,1.81,1.86,4.07q-2.67,13.49-5.35,27c-.16.83-.24,1.69-.4,2.8,3.26-.17,6.23-.35,9.21-.47,3.28-.13,4.77.94,4.9,3.41s-1.46,4.23-4.4,4.57-5.95.75-8.94,1c-1.69.17-2.56.74-2.88,2.66-2.7,16.55-5.61,33.06-6.52,49.84-.2,3.64,0,7.3,0,11.23.57-.83,1.08-1.5,1.52-2.21,7.3-11.83,13.64-24.17,18-37.35,2.28-6.81,3.51-14,5-21.06,2.44-11.65,4.69-23.35,7-35,.48-2.45,1.76-3.55,3.92-3.3a3.63,3.63,0,0,1,3.48,4.15,180,180,0,0,1-4,32.8c-1.55,7-3.77,14-5.36,21a114.55,114.55,0,0,0-1.69,12.29c-.28,2.43-.34,4.89-.5,7.34l.5.24,1.25-2.06q6.2-10.17,12.39-20.34a11,11,0,0,1,1.59-2.11,4.67,4.67,0,0,1,7.92,1.76,27.66,27.66,0,0,1,1.15,6.21c.28,3.08.25,6.18.46,9.26.24,3.6,1.68,5.21,5.25,5.95a56.85,56.85,0,0,0,19.77.28c15.28-2.18,30.52-4.64,45.8-6.82a116.5,116.5,0,0,1,28.78-.88c3,.32,4.72,1.95,4.87,4.6s-1.37,4.55-4.08,4.37c-18.27-1.21-36,2.59-53.83,5.65-12.18,2.09-24.43,3.84-36.84,3.39a36.07,36.07,0,0,1-9.32-1.66c-5.76-1.81-9-6-9.77-12-.07-.51-.14-1-.29-2.25-.82,1.22-1.39,1.93-1.8,2.72-4.47,8.51-9,17-13.35,25.57-1.66,3.23-2.7,4.14-5,3.7-2.7-.52-4.3-2.55-4.48-5.75a72.54,72.54,0,0,0-1-9.47c-.46.8-.89,1.63-1.38,2.41-5.44,8.66-10.86,17.34-16.37,25.95a7.61,7.61,0,0,1-2.88,2.61,4.35,4.35,0,0,1-6.51-4c0-8.12-.1-16.25.33-24.35a319.73,319.73,0,0,1,7.06-51.34,15,15,0,0,0,.2-1.76l-.57-.42a21.21,21.21,0,0,0-1.94,2c-2.91,3.77-5.58,7.74-8.7,11.33a63.7,63.7,0,0,1-22.81,16.86c-.55.24-1.06.56-1.75.93,2.42,3,4.38,6.06,4.45,9.81.2,11-3.85,20.26-13,26.64-6.21,4.33-12.48,1.23-13.61-6.26-1.32-8.7.1-17,3.34-25.14.36-.9.74-1.79,1.28-3.08L612,169.45c0,.22-.09.53,0,.71,3.16,5.31,3.08,10.92,1.51,16.64A30.6,30.6,0,0,1,605.63,201c-3,2.9-6.4,4.52-10.57,3s-6.07-4.85-6.51-9.13c-.78-7.39,1-14.37,3.45-21.23.27-.75.59-1.48.9-2.21,3.26-7.82,3.26-7.87,11.57-8.62A109,109,0,0,0,635,155.4C639,153.8,639.13,153.84,641.41,157.57ZM631.29,186.4a47,47,0,0,0,.69,5.47c.43,1.71,1.58,2.07,3,1a10,10,0,0,0,2.66-2.89c1.73-3.06,3.66-6.1,4.73-9.4a24.32,24.32,0,0,0,.74-8.53,6.36,6.36,0,0,0-3.17-5.24c-2.21-1.33-3.52-.93-4.61,1.34C632.56,173.92,631.74,180.09,631.29,186.4ZM602.53,171c-3,7.88-5.06,15.62-4.5,24,1.25-.67,2.62-1.31,3.12-2.37a73.38,73.38,0,0,0,4.91-11.84A8.56,8.56,0,0,0,602.53,171Z"/><path class="cls-1" d="M281.44,180.41c-1.76-6-.17-11.42,2.82-16.53,1.38-2.36,2.94-4.62,4.42-6.92a3.74,3.74,0,0,1,4.06-1.83c1.82.32,2.29,1.69,2.54,3.27a32.67,32.67,0,0,1-3.15,20.31c-.39.78-.79,1.54-1.18,2.28,2.74,2.6,5.53,2.88,8,.38a30.32,30.32,0,0,0,5.05-6.73c3.66-6.83,7.91-13.38,10.19-20.89a16.48,16.48,0,0,1,1.16-2.66,3.35,3.35,0,0,1,4.2-1.86c1.91.51,2.39,1.92,2.11,3.7-.8,5-1.73,10.08-2.4,15.15a18.69,18.69,0,0,0,2.21,11.77c2.39,4.3,6.12,6.44,10.93,6.89.35,0,.7.1,1.05.16,3.53.6,6.1-.15,8.45-3.45a227.56,227.56,0,0,1,34.17-37.88,22.61,22.61,0,0,1,6.22-3.82,4.41,4.41,0,0,1,5.46,1.53,5.29,5.29,0,0,1,.7,5.73,5.44,5.44,0,0,1-5,3.26,4.6,4.6,0,0,0-2.79.88c-10.94,10.79-21.77,21.69-30.9,34.11-.31.41-.56.85-.9,1.39,1.05.73,2,1.32,2.91,2,5.39,4.14,6.39,10.41,2.38,15.88a22.74,22.74,0,0,1-13.85,9.11c-7,1.5-12.12-3.4-10.87-10.47a45.88,45.88,0,0,1,2.31-7c.28-.81.69-1.57,1.09-2.47-12.94-.91-19.22-8.68-21.85-20.87-1,1.89-1.73,3.39-2.61,4.77a53.57,53.57,0,0,1-4.75,7c-4.45,5-10.42,5.56-15.94,1.78-.66-.44-1.28-.93-2.05-1.5-4,2.35-8.09,4.31-12.92,3.38-5-1-7.68-4.68-10.16-9.22-.51,1-.84,1.75-1.23,2.45-2.26,4.19-4.51,8.38-6.81,12.55a7,7,0,0,1-1.46,1.86,3.81,3.81,0,0,1-6.46-2.21c-.69-3.46-1.13-7-1.68-10.45-.12-.75-.23-1.49-.43-2.84-.74,1.11-1.14,1.73-1.57,2.34-2.67,3.83-5.32,7.68-8,11.48-1.06,1.48-2.36,2.66-4.44,2.2s-3-2-3.29-4c-.1-.69-.29-1.36-.57-2.61-.73,1.15-1.23,1.91-1.7,2.69a21.83,21.83,0,0,1-7.08,7.74c-6.88,4.21-13.77.93-14.75-7.09-.36-2.85-.46-5.72-.73-9.16-.8,1.13-1.23,1.85-1.77,2.48-3.62,4.2-7.05,8.6-11,12.48A19.28,19.28,0,0,1,182,205.2c-4.29,1.37-7.9-1.22-8.17-5.72a40.61,40.61,0,0,1,.55-9.47,68.85,68.85,0,0,1,9-24.43,39.87,39.87,0,0,1,5.09-6.74c4.74-4.92,9.27-4.9,14.22-.2a5.42,5.42,0,0,0,.64-.42,3.68,3.68,0,0,1,4.35-.92c1.71.74,2.13,2.17,2.17,3.88.16,7.06.35,14.12.53,21.18.09,3.53.08,7.06.32,10.58a4,4,0,0,0,1.42,2.8c.44.29,2-.47,2.6-1.17a48.71,48.71,0,0,0,5.6-7.63,49.48,49.48,0,0,0,6-20.13,50.74,50.74,0,0,1,1.63-8.3c.58-2.4,2.35-3.53,4.44-3.07s3,1.89,2.67,4.45c-.52,4.11-1.39,8.19-1.69,12.31a72.51,72.51,0,0,0,.38,12.52c.46-.56,1-1.08,1.38-1.67A67.54,67.54,0,0,0,244.79,162c.49-1.93,1.44-3.23,3.5-3.36,2.33-.16,3.66,1.5,3.67,4.11,0,6.17.17,12.34.3,18.51a4.17,4.17,0,0,0,.88,2.43c.62-1.2,1.36-2.35,1.86-3.6q2.28-5.77,4.39-11.62c.57-1.6,1.25-3,3.19-3a3.65,3.65,0,0,1,3.64,3.23c.28,1.39.43,2.8.78,4.16a31.63,31.63,0,0,0,1.52,4.78C271.3,184.1,275.8,185.11,281.44,180.41Zm-81.73-5.74c-2.18-2.37-2.13-2.37-2-5.35a23.54,23.54,0,0,0-.07-4.75c-.34-2.25-1.78-2.87-3.56-1.45a15.9,15.9,0,0,0-3.51,3.9c-5.44,8.62-9.12,17.9-10,28.15a11.48,11.48,0,0,0,.38,2.69c.89-.25,1.79-.47,2.66-.77a2.69,2.69,0,0,0,.85-.63C191,190.25,196.45,183.3,199.71,174.67Zm138.15,32.6a14.49,14.49,0,0,0,7.77-3.55c1.48-1.21,2.83-2.62,2.09-4.71s-2.46-2.54-4.59-2.71C341.41,199.85,338.1,202.58,337.86,207.27Z"/><path class="cls-1" d="M500.5,274.61a7.23,7.23,0,0,1-2.37,5.82q-2.38,2-6.76,2h-2.15v8.38h-5V267.26h7.52q4.29,0,6.52,1.84A6.73,6.73,0,0,1,500.5,274.61Zm-11.28,3.74h1.65a5.5,5.5,0,0,0,3.44-.91,3.18,3.18,0,0,0,1.15-2.66,3.26,3.26,0,0,0-1-2.59,4.49,4.49,0,0,0-3-.84h-2.27Z"/><path class="cls-1" d="M534.82,290.82h-5V280.65h-9.33v10.17h-5V267.26h5v9.23h9.33v-9.23h5Z"/><path class="cls-1" d="M572.71,279c0,3.9-1,6.9-2.9,9s-4.7,3.14-8.31,3.14-6.38-1-8.32-3.14-2.9-5.1-2.9-9,1-6.92,2.91-9,4.72-3.1,8.34-3.1,6.39,1,8.31,3.12S572.71,275.1,572.71,279Zm-17.19,0q0,3.94,1.5,5.94a5.22,5.22,0,0,0,4.48,2q6,0,6-7.94t-6-8a5.27,5.27,0,0,0-4.5,2Q555.52,275.06,555.52,279Z"/><path class="cls-1" d="M597.25,290.82h-5v-19.4h-6.4v-4.16h17.8v4.16h-6.4Z"/><path class="cls-1" d="M639.22,279q0,5.85-2.9,9c-1.93,2.1-4.71,3.14-8.32,3.14s-6.38-1-8.31-3.14-2.9-5.1-2.9-9,1-6.92,2.91-9,4.72-3.1,8.34-3.1,6.39,1,8.3,3.12S639.22,275.1,639.22,279ZM622,279q0,3.94,1.5,5.94a5.24,5.24,0,0,0,4.48,2q6,0,6-7.94t-5.94-8a5.27,5.27,0,0,0-4.5,2A9.83,9.83,0,0,0,622,279Z"/><path class="cls-1" d="M663.61,277.59H673v12.22a25.89,25.89,0,0,1-4.28,1,27.77,27.77,0,0,1-4.1.3q-5.34,0-8.15-3.13c-1.88-2.09-2.81-5.09-2.81-9s1.09-6.77,3.26-8.9,5.19-3.19,9-3.19a17.41,17.41,0,0,1,7,1.45l-1.66,4a11.79,11.79,0,0,0-5.36-1.29,6.63,6.63,0,0,0-5.19,2.17,8.44,8.44,0,0,0-2,5.85,9.38,9.38,0,0,0,1.57,5.86,5.43,5.43,0,0,0,4.57,2,15.71,15.71,0,0,0,3.17-.32v-4.91h-4.46Z"/><path class="cls-1" d="M694.12,281.78v9h-5V267.26H696q4.8,0,7.11,1.75a6.21,6.21,0,0,1,2.3,5.31,6.29,6.29,0,0,1-1.14,3.7,7.5,7.5,0,0,1-3.24,2.53q5.33,7.95,6.93,10.27h-5.54l-5.63-9Zm0-4.06h1.61a6.14,6.14,0,0,0,3.5-.79,2.84,2.84,0,0,0,1.13-2.48,2.58,2.58,0,0,0-1.15-2.39,7,7,0,0,0-3.57-.71h-1.52Z"/><path class="cls-1" d="M736.56,290.82l-1.71-5.61h-8.59l-1.71,5.61h-5.38l8.32-23.66h6.11l8.34,23.66Zm-2.9-9.8q-2.37-7.62-2.67-8.62c-.2-.67-.34-1.19-.42-1.58q-.54,2.07-3.05,10.2Z"/><path class="cls-1" d="M772.41,274.61a7.21,7.21,0,0,1-2.38,5.82c-1.58,1.34-3.84,2-6.76,2h-2.14v8.38h-5V267.26h7.53c2.85,0,5,.61,6.52,1.84A6.76,6.76,0,0,1,772.41,274.61Zm-11.28,3.74h1.64a5.51,5.51,0,0,0,3.45-.91,3.2,3.2,0,0,0,1.14-2.66,3.26,3.26,0,0,0-1-2.59,4.46,4.46,0,0,0-3-.84h-2.27Z"/><path class="cls-1" d="M806.72,290.82h-5V280.65h-9.34v10.17h-5V267.26h5v9.23h9.34v-9.23h5Z"/><path class="cls-1" d="M831.23,277l4.91-9.7h5.38l-7.81,14.39v9.17h-5v-9l-7.81-14.55h5.41Z"/></svg>